<svg xmlns="http://www.w3.org/2000/svg" data-name="S_Chat_24_N@2x" height="48" id="S_Chat_24_N_2x" viewBox="0 0 48 48" width="48">
  <defs>
    <style>
      .fill {
        fill: #dcdde1;
      }

      
    </style>
  </defs>
  <rect id="Canvas" fill="#ff13dc" opacity="0" width="48" height="48" /><path class="fill" d="M4.5,20h21a.5.5,0,0,1,.5.5v13a.5.5,0,0,1-.5.5H15.689a2,2,0,0,0-1.422.593L9.6,39.6V35a1,1,0,0,0-1-1H4.5a.5.5,0,0,1-.5-.5v-13A.5.5,0,0,1,4.5,20ZM0,20V34a4,4,0,0,0,4,4H6v8.793a.5.5,0,0,0,.5.5.486.486,0,0,0,.35-.148L16,38H26a4,4,0,0,0,4-4V20a4,4,0,0,0-4-4H4A4,4,0,0,0,0,20Z" transform="translate(0)" />
  <path class="fill" d="M28,12H18V8a4,4,0,0,1,4-4H44a4,4,0,0,1,4,4V22a4,4,0,0,1-4,4H42v6.793a.5.5,0,0,1-.853.354L34,26V18A6,6,0,0,0,28,12Z" transform="translate(0)" />
  </svg>