<svg xmlns="http://www.w3.org/2000/svg" data-name="S_Settings_24_N@2x" height="48" id="S_Settings_24_N_2x" viewBox="0 0 48 48" width="48">
  <defs>
    <style>
      .fill {
        fill: #dcdde1;
      }

      
    </style>
  </defs>
  <rect id="Canvas" fill="#ff13dc" opacity="0" width="48" height="48" /><path class="fill" d="M42,20.7H39.007a.487.487,0,0,1-.472-.374,14.85,14.85,0,0,0-1.664-4,.485.485,0,0,1,.071-.6l2.119-2.119a2,2,0,0,0,0-2.829L37.223,8.938a2,2,0,0,0-2.828,0l-2.12,2.12a.485.485,0,0,1-.6.07,14.86,14.86,0,0,0-4-1.663.487.487,0,0,1-.374-.471V6a2,2,0,0,0-2-2H22.7a2,2,0,0,0-2,2V8.994a.487.487,0,0,1-.374.471,14.86,14.86,0,0,0-4,1.663.485.485,0,0,1-.6-.07l-2.12-2.12a2,2,0,0,0-2.828,0L8.939,10.777a2,2,0,0,0,0,2.829l2.119,2.119a.485.485,0,0,1,.071.6,14.85,14.85,0,0,0-1.664,4,.487.487,0,0,1-.472.374H6a2,2,0,0,0-2,2v2.6a2,2,0,0,0,2,2H8.993a.487.487,0,0,1,.472.373,14.843,14.843,0,0,0,1.664,4.005.485.485,0,0,1-.071.6L8.939,34.394a2,2,0,0,0,0,2.829l1.838,1.838a2,2,0,0,0,2.829,0l2.119-2.119a.485.485,0,0,1,.6-.071,14.85,14.85,0,0,0,4,1.664.487.487,0,0,1,.374.471V42a2,2,0,0,0,2,2h2.6a2,2,0,0,0,2-2V39.006a.487.487,0,0,1,.374-.471,14.85,14.85,0,0,0,4-1.664.485.485,0,0,1,.6.071l2.119,2.119a2,2,0,0,0,2.829,0l1.838-1.838a2,2,0,0,0,0-2.829l-2.119-2.119a.485.485,0,0,1-.071-.6,14.843,14.843,0,0,0,1.664-4.005.487.487,0,0,1,.472-.373H42a2,2,0,0,0,2-2V22.7A2,2,0,0,0,42,20.7ZM24,31.5A7.5,7.5,0,1,1,31.5,24,7.5,7.5,0,0,1,24,31.5Z" />
  </svg>