<svg xmlns="http://www.w3.org/2000/svg" data-name="S_Chat_22_N@2x" height="44" id="S_Chat_22_N_2x" viewBox="0 0 44 44" width="44">
  <defs>
    <style>
      .fill {
        fill: #707070;
      }

      
    </style>
  </defs>
  <rect id="Canvas" fill="#ff13dc" opacity="0" width="44" height="44" /><path class="fill" d="M24,19.5v13a.5.5,0,0,1-.5.5H12.707a.5.5,0,0,0-.353.146L9,36.5v-3a.5.5,0,0,0-.5-.5h-3a.5.5,0,0,1-.5-.5v-13a.5.5,0,0,1,.5-.5h18A.5.5,0,0,1,24,19.5Zm-.027-3.441H5a3,3,0,0,0-3,3V33a3,3,0,0,0,3,3H6v5.4a.7.7,0,0,0,1.171.518L13.679,36H24.032a2.941,2.941,0,0,0,2.941-2.941v-14A3,3,0,0,0,23.973,16.059Z" />
  <path class="fill" d="M30.021,17.5a4.5,4.5,0,0,0-4.5-4.5H15.012V8a3,3,0,0,1,3-3H39a3,3,0,0,1,3,3V22a3,3,0,0,1-3,3H36v5.5a.5.5,0,0,1-.845.361L30.021,26Z" />
  </svg>