<svg xmlns="http://www.w3.org/2000/svg" height="22" id="S_Chat_22_N" viewBox="0 0 22 22" width="22">
  <defs>
    <style>
      .fill {
        fill: #707070;
      }

      
    </style>
  </defs>
  <rect id="Canvas" fill="#ff13dc" opacity="0" width="22" height="22" /><path class="fill" d="M12,9.75v6.5a.25.25,0,0,1-.25.25h-5.4a.249.249,0,0,0-.177.073L4.5,18.25v-1.5a.25.25,0,0,0-.25-.25H2.75a.25.25,0,0,1-.25-.25V9.75a.25.25,0,0,1,.25-.25h9A.25.25,0,0,1,12,9.75Zm-.014-1.721H2.5A1.5,1.5,0,0,0,1,9.529V16.5A1.5,1.5,0,0,0,2.5,18H3v2.7a.35.35,0,0,0,.585.259L6.839,18h5.177a1.47,1.47,0,0,0,1.47-1.471v-7A1.5,1.5,0,0,0,11.986,8.029Z" />
  <path class="fill" d="M15.01,8.75A2.25,2.25,0,0,0,12.76,6.5H7.506V4a1.5,1.5,0,0,1,1.5-1.5H19.5A1.5,1.5,0,0,1,21,4v7a1.5,1.5,0,0,1-1.5,1.5H18v2.749a.25.25,0,0,1-.423.181L15.01,13Z" />
  </svg>